<svg xmlns="http://www.w3.org/2000/svg" width="16" height="16" viewBox="0 0 16 16" fill="none">
    <path d="M13.7139 4.95918C14.1832 5.46814 13.7171 6.16671 13.0248 6.16671H2.33325C1.78097 6.16671 1.33325 5.71899 1.33325 5.16671V4.28004C1.33325 2.65337 2.65325 1.33337 4.27992 1.33337H5.82659C6.91325 1.33337 7.25325 1.68671 7.68659 2.26671L8.61992 3.50671C8.82659 3.78004 8.85325 3.81337 9.23992 3.81337H11.0999C12.1329 3.81337 13.064 4.25433 13.7139 4.95918Z" fill="#989FAB"/>
    <path d="M13.6566 7.16652C14.2076 7.16651 14.6548 7.61216 14.6566 8.16313L14.6666 11.1C14.6666 13.0667 13.0666 14.6667 11.0999 14.6667H4.89992C2.93325 14.6667 1.33325 13.0667 1.33325 11.1V8.16667C1.33325 7.61439 1.78096 7.16668 2.33324 7.16667L13.6566 7.16652Z" fill="#989FAB"/>
</svg>