<svg xmlns="http://www.w3.org/2000/svg" width="14" height="14" viewBox="0 0 14 14" fill="none">
    <path d="M10.3333 0.333374H3.66659C1.82659 0.333374 0.333252 1.82004 0.333252 3.65337V7.64004V8.30671C0.333252 10.14 1.82659 11.6267 3.66659 11.6267H4.66659C4.84659 11.6267 5.08659 11.7467 5.19992 11.8934L6.19992 13.22C6.63992 13.8067 7.35992 13.8067 7.79992 13.22L8.79992 11.8934C8.92659 11.7267 9.12659 11.6267 9.33325 11.6267H10.3333C12.1733 11.6267 13.6666 10.14 13.6666 8.30671V3.65337C13.6666 1.82004 12.1733 0.333374 10.3333 0.333374ZM7.66659 8.16671H3.66659C3.39325 8.16671 3.16659 7.94004 3.16659 7.66671C3.16659 7.39337 3.39325 7.16671 3.66659 7.16671H7.66659C7.93992 7.16671 8.16659 7.39337 8.16659 7.66671C8.16659 7.94004 7.93992 8.16671 7.66659 8.16671ZM10.3333 4.83337H3.66659C3.39325 4.83337 3.16659 4.60671 3.16659 4.33337C3.16659 4.06004 3.39325 3.83337 3.66659 3.83337H10.3333C10.6066 3.83337 10.8333 4.06004 10.8333 4.33337C10.8333 4.60671 10.6066 4.83337 10.3333 4.83337Z" fill="#989FAB"/>
</svg>